<?xml version="1.0" standalone="no"?>
<!DOCTYPE svg PUBLIC "-//W3C//DTD SVG 20010904//EN"
 "http://www.w3.org/TR/2001/REC-SVG-20010904/DTD/svg10.dtd">
<svg version="1.0" xmlns="http://www.w3.org/2000/svg"
 width="500.000000pt" height="111.000000pt" viewBox="0 0 500.000000 111.000000"
 preserveAspectRatio="xMidYMid meet">

<g transform="translate(0.000000,111.000000) scale(0.100000,-0.100000)"
fill="#000000" stroke="none">
<path d="M598 765 c-28 -16 -58 -62 -58 -90 0 -22 -13 -19 -67 15 -54 34 -73
38 -73 13 0 -10 22 -32 50 -50 47 -31 48 -33 39 -65 -5 -18 -9 -34 -9 -35 0
-1 -24 -3 -52 -5 -45 -3 -53 -6 -53 -23 0 -17 8 -20 53 -23 47 -3 52 -5 52
-27 0 -13 3 -30 6 -39 4 -11 -8 -24 -40 -43 -27 -16 -46 -35 -46 -45 0 -25 23
-22 69 6 l39 25 23 -26 c30 -32 78 -53 121 -53 40 0 115 36 129 61 10 19 11
19 53 -6 49 -29 62 -31 69 -11 4 10 -10 25 -41 44 -46 28 -48 31 -44 71 l4 41
48 0 c27 0 52 6 59 13 17 22 -7 37 -60 37 -40 0 -48 3 -53 23 -12 44 -6 56 44
86 34 21 48 35 44 46 -9 21 -20 19 -76 -15 -26 -16 -52 -30 -57 -30 -5 0 -12
15 -15 33 -13 68 -97 106 -158 72z m99 -49 c6 -6 13 -20 15 -31 3 -18 -3 -20
-59 -23 -55 -3 -63 -1 -63 15 1 52 69 77 107 39z m67 -112 c3 -9 6 -54 6 -101
0 -83 -1 -86 -34 -119 -55 -55 -65 -48 -68 49 -2 65 -6 82 -18 82 -12 0 -16
-17 -18 -82 -3 -97 -13 -104 -68 -49 -33 33 -34 36 -34 116 0 120 0 120 124
120 86 0 105 -3 110 -16z"/>
<path d="M1794 691 c-48 -22 -77 -59 -94 -119 -21 -82 20 -176 93 -211 55 -27
92 -27 147 2 59 30 82 64 88 132 l5 56 -84 -3 -84 -3 0 -30 c0 -27 3 -30 38
-33 43 -4 49 -23 15 -46 -50 -35 -110 -10 -129 53 -14 47 1 103 34 126 31 21
79 19 106 -6 l22 -21 22 28 c12 16 22 33 22 38 0 17 -87 56 -124 56 -20 0 -54
-9 -77 -19z"/>
<path d="M3372 684 c-138 -69 -137 -250 2 -319 54 -27 90 -31 148 -15 48 14
52 22 33 60 -13 25 -20 30 -38 24 -81 -27 -157 17 -157 92 0 71 76 120 144 94
36 -13 33 -14 51 20 19 38 14 46 -33 60 -58 16 -94 12 -150 -16z"/>
<path d="M4674 691 c-48 -22 -77 -59 -94 -119 -21 -82 20 -176 93 -211 55 -27
92 -27 147 2 59 30 82 64 88 132 l5 56 -84 -3 -84 -3 0 -30 c0 -27 3 -30 38
-33 43 -4 49 -23 15 -46 -50 -35 -110 -10 -129 53 -14 47 1 103 34 126 31 21
79 19 106 -6 l22 -21 22 28 c12 16 22 33 22 38 0 17 -87 56 -124 56 -20 0 -54
-9 -77 -19z"/>
<path d="M1020 526 l0 -176 94 0 c87 0 97 2 125 26 26 21 31 33 31 68 0 44
-22 86 -46 86 -18 0 -18 14 1 30 21 18 19 83 -4 111 -17 21 -29 24 -110 27
l-91 4 0 -176z m128 105 c22 -13 11 -56 -15 -59 -20 -3 -23 1 -23 32 0 36 11
44 38 27z m32 -156 c16 -19 4 -52 -23 -59 -42 -11 -47 -7 -47 34 0 37 2 40 29
40 16 0 34 -7 41 -15z"/>
<path d="M1340 593 c1 -190 22 -235 114 -248 54 -9 105 7 137 41 23 24 24 34
27 170 l3 144 -40 0 -41 0 0 -120 c0 -107 -2 -122 -20 -140 -24 -24 -38 -25
-68 -4 -21 14 -22 22 -22 140 l0 124 -45 0 -45 0 0 -107z"/>
<path d="M2240 665 c0 -35 0 -35 45 -35 l45 0 0 -140 0 -140 40 0 40 0 0 140
0 140 40 0 c39 0 40 1 40 35 l0 35 -125 0 -125 0 0 -35z"/>
<path d="M2560 525 l0 -175 40 0 39 0 3 66 3 66 50 -66 49 -66 54 0 54 0 -61
72 c-57 70 -59 73 -39 84 28 15 47 52 48 92 0 75 -42 102 -160 102 l-80 0 0
-175z m125 105 c22 -8 26 -15 23 -42 -3 -29 -7 -33 -35 -36 -33 -3 -33 -3 -33
42 0 49 4 52 45 36z"/>
<path d="M3001 678 c-5 -13 -28 -70 -51 -128 -23 -58 -51 -126 -61 -152 l-19
-48 44 0 c42 0 45 2 56 35 l12 35 67 0 68 0 9 -32 c9 -31 13 -33 57 -36 l48
-3 -16 38 c-9 21 -41 100 -72 176 l-55 137 -39 0 c-32 0 -41 -4 -48 -22z m73
-150 l15 -38 -39 0 -39 0 17 45 c18 49 23 48 46 -7z"/>
<path d="M3640 525 l0 -175 45 0 45 0 0 71 0 70 61 -70 62 -71 54 0 55 0 -19
24 c-10 13 -44 53 -75 89 -32 35 -58 68 -58 72 0 5 23 36 52 69 28 34 58 69
66 79 14 16 12 17 -35 17 -51 0 -51 0 -105 -66 l-53 -66 -3 66 -3 66 -44 0
-45 0 0 -175z"/>
<path d="M4020 525 l0 -175 40 0 40 0 0 175 0 175 -40 0 -40 0 0 -175z"/>
<path d="M4200 526 l0 -176 40 0 40 0 0 107 0 107 68 -107 67 -107 43 0 42 0
0 175 0 175 -40 0 -39 0 -3 -106 -3 -106 -65 103 c-65 103 -66 104 -108 107
l-42 3 0 -175z"/>
</g>
</svg>
